<?xml version="1.0" standalone="no"?>
<!DOCTYPE svg PUBLIC "-//W3C//DTD SVG 20010904//EN"
 "http://www.w3.org/TR/2001/REC-SVG-20010904/DTD/svg10.dtd">
<svg version="1.0" xmlns="http://www.w3.org/2000/svg"
 width="307.000000pt" height="307.000000pt" viewBox="0 0 307.000000 307.000000"
 preserveAspectRatio="xMidYMid meet">
<metadata>
Created by potrace 1.15, written by Peter Selinger 2001-2017
</metadata>
<g transform="translate(0.000000,307.000000) scale(0.100000,-0.100000)"
fill="#404040" stroke="none">
<path d="M0 1535 l0 -1535 1535 0 1535 0 0 1535 0 1535 -1535 0 -1535 0 0
-1535z m3020 5 l0 -1490 -1490 0 -1490 0 0 1490 0 1490 1490 0 1490 0 0 -1490z"/>
<path d="M90 1535 l0 -1445 1440 0 1440 0 0 1445 0 1445 -1440 0 -1440 0 0
-1445z m1394 1376 c27 -30 18 -83 -17 -99 -53 -25 -134 -16 -288 33 -79 26
-148 48 -154 51 -5 2 21 2 59 -1 38 -3 77 -10 87 -16 10 -5 63 -19 117 -30
114 -23 152 -17 152 25 0 13 -7 27 -16 30 -8 3 -12 10 -9 16 10 17 51 11 69
-9z m644 -4 c6 -7 8 -23 5 -36 -5 -21 -3 -22 18 -16 13 4 35 13 49 20 125 64
342 56 469 -17 78 -45 151 -118 151 -151 0 -36 -25 -35 -44 1 -20 40 -86 97
-145 127 -87 44 -222 66 -290 48 -23 -6 -22 -6 8 -19 26 -11 31 -18 31 -48 0
-26 -6 -38 -21 -47 -20 -10 -21 -9 -16 11 7 28 -24 60 -59 60 -16 0 -23 4 -18
12 4 7 3 8 -5 4 -23 -15 -145 -46 -150 -38 -13 17 -37 4 -53 -28 -35 -72 -72
-97 -97 -66 -10 11 -9 21 3 45 21 40 20 81 -4 109 -18 22 -20 22 -44 7 -18
-12 -26 -27 -28 -53 -4 -49 -35 -64 -107 -53 -65 10 -91 32 -73 62 18 28 7 39
-36 39 l-37 1 25 14 c51 29 121 6 104 -34 -20 -49 -19 -51 35 -51 50 0 51 1
51 30 0 17 9 39 21 51 18 18 28 20 78 14 39 -4 60 -12 70 -26 7 -10 22 -19 32
-19 11 0 19 -4 19 -10 0 -18 19 -11 31 11 8 15 8 24 0 32 -6 6 -11 15 -11 19
0 13 27 9 38 -5z m-1087 -36 c141 -36 177 -60 316 -210 165 -176 208 -201 253
-144 16 21 23 24 29 14 11 -17 3 -51 -17 -73 -10 -13 -30 -18 -64 -18 -36 0
-48 -4 -48 -15 0 -24 -28 -18 -75 16 -34 24 -47 43 -60 83 -19 58 -31 76 -51
76 -21 0 -17 -23 6 -37 28 -18 54 -115 46 -177 -6 -50 -50 -156 -66 -156 -5 0
-10 6 -13 13 -3 7 -20 -4 -44 -30 -32 -35 -47 -43 -74 -43 -60 1 -91 43 -91
120 0 61 6 71 72 117 59 41 72 70 45 97 -13 12 -21 14 -37 5 -25 -13 -36 -4
-22 19 6 10 27 18 47 20 42 4 67 -24 67 -76 0 -40 -24 -66 -98 -108 -59 -33
-71 -54 -48 -89 61 -94 201 40 183 175 -12 89 -109 240 -192 298 -82 57 -283
89 -385 62 -62 -17 -160 -24 -160 -12 0 17 69 55 134 73 86 25 248 24 347 0z
m-723 -51 c18 -11 37 -32 42 -48 25 -68 27 -70 39 -39 14 36 35 34 60 -6 26
-42 44 -90 31 -82 -6 3 -10 1 -10 -4 0 -6 10 -11 21 -11 21 0 22 -2 15 -95 -7
-99 1 -119 25 -63 14 34 66 98 79 98 10 0 50 -94 50 -117 -1 -10 -7 -36 -15
-58 -19 -52 -4 -68 29 -32 14 15 32 27 40 27 22 0 38 -59 26 -100 -15 -51 -12
-132 5 -154 21 -27 22 -274 2 -282 -8 -3 -44 -4 -81 -2 l-68 3 22 28 c30 38
18 45 -30 18 -73 -41 -136 -54 -191 -40 -27 7 -49 15 -49 19 0 3 7 15 15 27
15 21 14 21 -53 25 -89 5 -149 -8 -157 -33 -13 -41 -35 -13 -35 45 0 63 91
145 162 147 30 0 31 1 11 11 -30 15 -38 40 -17 55 28 20 81 15 124 -12 46 -29
73 -32 68 -9 -2 11 -33 27 -86 45 -46 15 -94 35 -107 43 -47 31 -92 169 -65
201 9 11 23 13 51 9 l40 -7 -37 37 -36 36 8 83 c13 116 11 214 -4 229 -7 7
-12 16 -12 20 0 15 55 8 88 -12z m1899 -22 c33 -12 43 -32 21 -41 -7 -3 -3 -6
9 -6 29 -1 43 -29 43 -85 0 -52 -25 -86 -63 -86 -35 0 -38 9 -11 35 31 31 30
59 -2 84 -34 27 -48 26 -111 -5 -43 -22 -55 -25 -68 -14 -8 7 -15 16 -15 20 0
19 53 69 93 89 49 24 59 25 104 9z m-464 -39 c95 -13 215 -62 288 -116 223
-168 295 -448 197 -766 -13 -42 -23 -44 -93 -18 -16 6 -47 13 -69 16 l-38 6 6
62 c3 34 9 112 12 172 10 176 -26 276 -140 391 -105 105 -234 153 -451 169
-86 7 -90 8 -122 43 -18 20 -30 38 -27 41 18 19 305 19 437 0z m835 15 c12 -4
22 -14 22 -23 0 -14 9 -17 49 -17 65 1 75 -10 66 -70 -5 -34 -15 -55 -36 -74
-29 -28 -29 -40 3 -40 26 0 22 -23 -11 -59 -23 -24 -37 -31 -68 -31 -42 0 -83
23 -83 46 0 10 12 14 40 14 22 0 40 5 40 10 0 6 -13 10 -30 10 -42 0 -40 28 2
32 17 2 33 8 35 15 3 9 -4 10 -26 3 -58 -16 -49 15 14 49 22 12 32 20 23 17
-9 -3 -34 -8 -55 -11 l-38 -6 23 19 c28 25 29 36 1 22 -11 -7 -28 -9 -37 -5
-15 6 -14 9 6 25 32 26 27 33 -9 15 -17 -9 -33 -15 -35 -13 -10 11 12 50 35
63 30 16 37 17 69 9z m-1743 -20 l230 -6 38 -36 c43 -42 45 -47 16 -49 -11 -1
-36 -7 -55 -13 -65 -22 -64 -13 -64 -578 l0 -509 25 -27 c34 -37 66 -47 180
-57 112 -9 293 3 395 27 106 26 217 85 282 150 32 32 60 66 64 76 3 11 15 18
32 18 44 0 156 -20 166 -30 14 -14 -152 -172 -230 -218 -39 -22 -104 -52 -145
-66 -41 -14 -65 -26 -54 -26 35 0 184 57 219 84 19 14 39 26 45 26 19 0 154
134 168 168 13 31 23 39 36 26 13 -14 -39 -92 -107 -160 -55 -55 -93 -82 -166
-119 -52 -26 -87 -44 -77 -41 12 4 20 -1 26 -17 10 -27 4 -47 -15 -47 -10 0
-13 -7 -8 -25 7 -29 -3 -33 -22 -7 -7 9 -14 12 -14 6 0 -6 9 -23 21 -38 23
-29 15 -34 -19 -10 -13 9 -22 11 -22 4 0 -6 11 -15 24 -22 14 -6 27 -17 31
-25 8 -23 -46 -7 -64 17 -7 11 -20 20 -27 20 -8 0 -14 5 -14 10 0 6 -6 10 -12
10 -7 -1 9 -21 35 -45 39 -36 45 -45 29 -45 -12 0 -24 5 -27 10 -3 6 -11 10
-17 10 -6 0 -5 -7 3 -17 13 -15 11 -16 -16 -10 -16 3 -24 4 -17 1 17 -8 15
-24 -3 -24 -9 0 -12 -6 -9 -15 5 -11 -1 -15 -20 -15 -25 0 -38 -20 -13 -20 6
-1 -4 -9 -23 -20 -22 -12 -29 -19 -17 -20 17 0 17 -1 0 -26 -13 -21 -22 -25
-45 -20 -40 8 -121 49 -125 63 -3 7 15 26 38 42 25 18 35 31 26 31 -24 0 -21
26 5 50 27 25 64 23 62 -3 -1 -11 5 -17 18 -17 11 0 29 -5 41 -12 21 -11 21
-11 2 -19 -19 -7 -19 -8 2 -8 41 -2 33 17 -25 59 -36 26 -68 60 -84 90 l-27
49 27 4 c15 2 -2 5 -38 5 -36 1 -145 7 -243 14 -162 10 -179 10 -195 -5 -14
-15 -17 -57 -20 -362 -3 -190 -8 -345 -13 -345 -5 0 -9 160 -9 360 l0 360 25
16 c23 15 40 15 163 5 76 -6 158 -10 182 -10 l45 2 -45 7 c-25 5 -118 12 -207
16 l-162 7 -11 -27 c-5 -15 -10 -107 -10 -205 0 -98 -3 -260 -7 -359 l-6 -182
-34 0 c-19 0 -65 5 -104 11 l-69 12 2 911 c3 1030 7 978 -71 1056 -45 44 -122
81 -166 79 -14 0 -16 -2 -5 -6 47 -18 160 -77 160 -84 0 -5 -17 -2 -37 7 -21
9 -56 22 -78 30 -46 17 -98 53 -76 54 11 0 10 4 -4 14 -12 8 -16 19 -11 31 5
15 14 17 59 11 28 -3 156 -9 282 -12z m1644 -83 c9 -16 8 -18 -9 -14 -26 7
-26 -9 0 -25 16 -9 20 -23 20 -62 0 -28 -4 -50 -9 -50 -5 0 -16 -3 -25 -6 -11
-4 -19 2 -25 17 -6 19 -5 25 8 30 11 4 4 10 -24 18 -22 6 -48 11 -58 11 -34 0
-77 -30 -95 -67 -19 -40 -36 -48 -40 -18 -3 25 70 103 105 111 14 4 48 4 76 1
42 -4 48 -3 30 5 -25 12 -30 37 -11 56 18 18 46 14 57 -7z m-1311 -23 c20 -20
14 -28 -23 -28 -45 0 -83 -18 -91 -44 -4 -11 -6 -149 -5 -306 1 -157 -3 -350
-10 -430 -10 -132 -9 -153 8 -232 21 -91 14 -115 -14 -50 -14 32 -16 101 -15
530 1 323 5 499 12 512 15 27 54 47 121 59 3 1 10 -4 17 -11z m1716 -153 c0
-87 -2 -94 -52 -206 -54 -122 -61 -153 -39 -184 11 -14 22 -17 55 -12 43 5 51
0 30 -21 -22 -22 -84 -14 -117 14 -49 41 -44 85 24 191 67 106 72 129 9 44
-47 -63 -118 -117 -183 -139 -26 -9 -61 -10 -145 -1 -61 6 -114 13 -118 16 -5
2 -8 15 -8 29 0 28 0 28 64 9 139 -42 308 11 376 119 45 71 64 148 52 210 -13
63 -7 71 14 20 12 -29 15 -57 11 -109 l-5 -70 15 59 c14 54 14 63 -1 111 -21
66 -20 90 1 45 12 -24 17 -63 17 -125z m-68 16 c-17 -161 -115 -261 -254 -261
-68 0 -103 16 -116 52 -11 31 5 58 35 58 14 0 19 -7 19 -25 0 -49 82 -65 155
-31 91 43 138 119 144 235 2 57 6 70 13 56 6 -10 8 -45 4 -84z m-900 -179 c0
-141 10 -174 70 -248 37 -45 44 -74 17 -74 -22 0 -71 60 -99 121 -37 79 -53
213 -38 323 l7 48 21 -22 c19 -19 21 -32 22 -148z m-158 102 c45 -29 19 -95
-28 -69 -32 18 -55 18 -69 1 -10 -11 -7 -17 10 -29 11 -9 18 -20 14 -26 -8
-15 -38 -14 -53 1 -16 16 -15 73 1 85 21 17 66 21 84 7 23 -17 33 -17 33 1 0
20 -64 30 -101 15 -64 -27 -81 -98 -29 -125 16 -8 42 -15 58 -15 16 0 36 -7
43 -17 13 -15 11 -16 -26 -10 -22 4 -54 7 -72 7 -88 0 -83 103 9 169 46 32 80
34 126 5z m-338 -100 c0 -120 -39 -228 -111 -307 -41 -44 -188 -137 -217 -137
-10 0 -12 15 -10 57 l3 57 54 16 c124 35 216 173 246 369 7 44 8 44 21 20 7
-13 13 -47 14 -75z m38 -80 c0 -74 3 -138 6 -141 3 -4 17 -1 30 5 20 9 29 8
48 -7 18 -15 27 -16 45 -8 33 15 40 1 16 -31 -14 -19 -35 -30 -69 -38 l-49
-10 3 -63 c3 -44 -1 -69 -12 -86 -24 -37 -62 -58 -91 -51 -29 7 -34 26 -6 26
29 0 44 26 37 62 -21 111 -21 115 13 132 25 13 29 20 22 34 -22 44 -23 312 0
312 4 0 7 -61 7 -136z m862 -127 c0 -86 -6 -140 -21 -201 -25 -99 -33 -116
-50 -99 -10 10 -6 36 17 120 31 117 38 255 17 323 -25 80 -22 95 7 35 28 -56
30 -67 30 -178z m191 22 c90 -30 106 -101 32 -143 -8 -5 -11 6 -10 36 l2 43
-47 3 c-40 3 -52 -1 -72 -21 -49 -49 -43 -162 12 -221 24 -24 24 -28 7 -24
-40 7 -85 103 -85 183 0 62 30 99 126 154 1 1 16 -4 35 -10z m202 -109 c-5
-18 -3 -19 21 -10 35 13 102 13 127 0 25 -14 49 -62 49 -97 0 -35 -31 -103
-56 -124 -10 -9 -40 -24 -66 -34 -55 -20 -63 -36 -42 -77 14 -26 19 -29 47
-24 17 3 39 14 49 23 14 13 18 13 18 2 -1 -37 -73 -79 -107 -61 -33 19 -64 59
-69 93 -7 44 25 81 91 103 26 9 56 27 66 39 22 26 25 90 5 106 -31 26 -117 8
-153 -32 -70 -77 -73 -250 -7 -379 19 -37 18 -62 -7 -111 l-22 -42 -16 25 c-9
14 -42 59 -74 101 -92 124 -122 202 -98 261 5 13 12 35 15 51 7 32 35 37 43 7
10 -38 33 -23 33 23 0 58 28 105 85 144 55 38 75 42 68 13z m-1444 -119 c10
-6 18 -24 19 -47 2 -21 9 -46 17 -55 21 -22 19 -28 -11 -39 -17 -7 -32 -6 -46
1 -17 9 -19 17 -14 50 7 45 -8 58 -43 39 -32 -17 -29 -82 5 -109 43 -34 123
-28 319 25 317 84 444 91 667 34 120 -30 153 -43 221 -88 34 -23 75 -78 65
-88 -2 -2 -68 22 -147 52 -179 69 -267 88 -382 80 -181 -12 -378 -107 -461
-222 -18 -26 -39 -44 -51 -44 -18 0 -18 1 3 35 28 46 12 45 -19 0 -23 -34 -26
-35 -87 -35 -45 0 -64 4 -64 13 1 24 36 56 105 96 83 48 81 52 -10 11 -80 -36
-88 -36 -132 -9 -32 20 -33 22 -17 40 16 18 16 19 -4 19 -51 0 -103 91 -82
144 13 34 53 74 90 90 43 18 38 18 59 7z m-907 -259 c-119 -117 -158 -200
-169 -367 -4 -69 -2 -98 10 -125 l15 -35 2 55 c2 47 3 51 10 25 12 -45 12 -97
0 -90 -6 4 -10 -5 -10 -19 0 -48 -17 -26 -34 42 -39 162 -7 343 81 458 35 47
163 155 174 148 6 -3 -30 -45 -79 -92z m108 -38 c83 -58 158 -86 260 -96 15
-2 26 -10 28 -22 4 -18 -1 -19 -79 -14 -46 3 -101 13 -123 22 -41 17 -186 106
-186 114 0 3 7 14 16 23 18 20 18 20 84 -27z m1946 5 c65 -33 136 -98 191
-172 54 -73 34 -65 -33 14 -89 105 -161 148 -251 149 -51 0 -103 -38 -103 -77
0 -19 -4 -24 -16 -19 -9 3 -18 6 -20 6 -2 0 -4 18 -4 40 0 65 32 90 114 90 52
0 75 -6 122 -31z m-11 -207 c0 -87 -1 -89 -34 -128 -33 -37 -34 -39 -13 -42
29 -4 28 -17 -7 -94 -50 -111 -91 -133 -227 -123 -114 8 -127 15 -94 49 26 29
17 36 -12 9 -10 -9 -21 -13 -25 -9 -10 9 8 37 33 50 22 13 35 28 28 35 -2 2
-18 -8 -34 -24 -22 -21 -30 -25 -30 -13 0 16 25 39 94 88 35 24 45 40 27 40
-5 0 -31 -18 -57 -40 -73 -60 -84 -54 -58 33 3 9 1 17 -4 17 -5 0 -15 -20 -21
-44 -10 -42 -35 -75 -48 -63 -3 4 0 20 7 37 7 17 10 33 7 36 -3 4 -13 -10 -21
-31 -32 -75 -70 -15 -51 81 13 74 102 162 184 183 20 6 81 13 136 16 75 5 111
13 145 30 64 32 74 20 75 -93z m381 -78 c83 -205 97 -404 44 -629 -16 -69 -39
-142 -50 -163 -17 -31 -20 -32 -16 -11 4 20 1 28 -12 31 -18 5 -18 8 -1 94 33
161 22 274 -42 420 -21 47 -96 120 -134 130 -35 9 -82 -13 -102 -47 -22 -36
-29 -36 -48 1 -13 24 -14 38 -5 70 12 45 37 65 92 75 33 6 36 10 28 25 -13 24
-13 57 0 65 6 4 41 -9 78 -27 75 -38 105 -79 117 -154 7 -46 20 -63 37 -46 7
7 -5 39 -36 99 -41 79 -45 92 -36 122 10 35 30 65 38 57 2 -3 24 -53 48 -112z
m-2257 60 c26 -10 43 -25 51 -44 20 -48 7 -53 -37 -15 -126 108 -228 -43 -163
-239 32 -95 7 -92 -29 4 -37 97 -24 209 32 268 40 44 83 52 146 26z m864 -70
c15 4 17 -4 17 -59 0 -50 5 -69 25 -100 15 -20 25 -38 23 -40 -2 -1 -22 -5
-45 -9 -37 -5 -44 -3 -67 25 -18 21 -26 42 -26 70 0 43 -2 44 -29 27 -10 -6
-25 -9 -33 -5 -19 7 -33 87 -18 97 6 4 39 3 73 -2 34 -5 70 -7 80 -4z m-181
-36 c2 -24 0 -56 -4 -73 -14 -59 -38 -261 -38 -325 0 -68 25 -161 59 -226 45
-83 172 -204 215 -204 9 0 16 -4 16 -8 0 -5 19 -17 43 -27 31 -14 66 -19 134
-19 100 -1 127 10 161 66 15 25 15 28 -3 47 -34 39 -129 22 -118 -20 9 -33
-31 -59 -92 -59 -64 0 -95 20 -95 63 0 29 41 87 62 87 17 0 7 -27 -19 -50
l-27 -23 28 -23 c42 -37 118 -28 87 10 -7 9 -6 19 5 34 54 78 214 64 231 -19
4 -23 10 -29 24 -26 17 5 18 3 3 -32 -19 -47 -43 -80 -78 -105 -22 -17 -42
-21 -102 -21 -46 0 -73 -4 -70 -10 19 -47 21 -45 -33 -45 -28 0 -68 7 -90 16
-36 14 -40 18 -34 45 8 40 -37 83 -96 93 -56 9 -94 29 -115 60 -20 32 -42 33
-50 3 -5 -21 -7 -20 -29 13 -83 124 -123 416 -83 607 24 110 65 213 87 213 14
0 19 -9 21 -42z m678 -153 c115 -59 105 -219 -20 -344 -77 -77 -141 -107 -332
-156 -94 -25 -128 -47 -128 -85 0 -36 -14 -39 -35 -6 -15 22 -15 28 -2 53 23
43 45 59 168 122 145 73 194 106 219 146 11 18 27 36 35 39 21 8 18 26 -4 26
-11 0 -28 -14 -40 -33 -48 -79 -220 -182 -321 -194 -35 -4 -63 -1 -96 12 -40
15 -45 20 -40 41 5 20 3 24 -18 24 -58 0 -89 113 -50 180 42 71 168 106 214
60 21 -21 26 -55 10 -65 -5 -3 -10 3 -10 15 0 42 -103 52 -142 13 -9 -10 -20
-32 -24 -50 -5 -27 -1 -37 24 -63 26 -26 38 -30 85 -30 30 0 74 7 97 15 57 20
144 95 177 153 68 121 154 168 233 127z m536 -30 c49 -52 95 -153 101 -222 6
-64 -13 -164 -47 -257 -23 -60 -108 -186 -141 -210 -44 -30 -39 -3 9 52 79 92
99 131 126 239 22 90 24 110 15 165 -15 88 -34 135 -80 189 -62 74 -47 112 17
44z m257 -53 c57 -60 86 -266 52 -367 l-14 -40 7 40 c20 113 -1 249 -45 297
-21 24 -66 23 -88 -2 -22 -24 -35 -17 -35 19 0 35 41 81 73 81 13 0 35 -13 50
-28z m-528 -58 c115 -15 148 -54 126 -148 -30 -123 -52 -156 -81 -121 -22 27
-40 18 -40 -20 0 -51 -23 -89 -74 -125 -25 -16 -47 -30 -49 -30 -2 0 -7 32
-11 71 -3 39 -10 77 -13 83 -14 20 -42 111 -42 131 0 19 0 19 13 3 20 -27 25
-22 20 20 -5 33 -4 35 9 20 20 -25 41 -24 27 1 -5 11 -10 35 -9 53 0 18 3 27
6 21 2 -7 11 -13 20 -13 11 0 10 6 -6 29 -29 40 -27 44 17 37 20 -3 60 -8 87
-12z m-1854 -49 c42 -74 148 -176 248 -239 113 -71 302 -112 464 -102 58 4 97
3 97 -2 0 -16 -49 -23 -157 -23 -211 1 -345 39 -470 132 -28 21 -53 35 -56 31
-2 -4 -2 -2 -1 5 2 6 -16 26 -39 44 -38 29 -108 115 -131 160 -8 17 -3 49 9
49 2 0 19 -25 36 -55z m2112 -84 c82 -31 48 -238 -58 -355 -19 -21 -35 -36
-35 -33 0 2 18 32 40 65 94 141 94 255 0 257 -48 0 -54 23 -14 54 30 24 34 24
67 12z m-524 -125 c-16 -34 -3 -46 17 -17 9 12 22 20 29 17 8 -3 16 0 19 7 2
7 5 -5 5 -26 2 -62 -38 -135 -51 -95 -3 7 -13 5 -31 -7 -39 -25 -57 -14 -57
37 0 47 22 88 46 88 8 0 17 7 21 15 3 9 7 14 10 12 2 -3 -2 -16 -8 -31z
m-1429 -108 c24 -13 46 -29 48 -35 7 -25 -26 -24 -63 1 -21 14 -52 26 -69 26
-46 0 -130 -43 -156 -80 -68 -96 -8 -250 123 -317 118 -59 159 -67 337 -66
186 1 210 7 354 79 92 47 126 53 59 11 -67 -43 -157 -85 -218 -103 -49 -14
-85 -16 -210 -11 -204 8 -331 45 -423 122 -95 80 -96 242 -1 332 72 67 141 80
219 41z m2156 2 c37 -14 53 -38 54 -79 0 -22 4 -32 13 -28 47 20 47 20 46 -4
-1 -27 -17 -72 -18 -50 -1 11 -6 10 -21 -4 -24 -22 -26 -35 -5 -35 26 0 16
-14 -33 -46 -57 -37 -67 -64 -24 -64 32 0 55 21 96 88 17 27 40 49 61 58 43
18 42 18 48 -6 3 -12 14 -20 25 -20 49 0 69 -89 32 -141 -16 -22 -34 -31 -80
-41 -47 -9 -60 -16 -60 -30 0 -25 35 -58 63 -58 l22 -1 -24 -13 c-42 -23 -91
-1 -91 41 0 41 19 64 73 88 88 39 111 86 51 101 -24 6 -36 -2 -111 -80 -79
-82 -85 -86 -126 -86 -34 0 -49 6 -69 27 -14 16 -28 36 -31 46 -8 22 19 93 67
174 20 34 36 67 36 74 0 7 -12 25 -26 40 -16 17 -24 34 -21 43 7 19 16 20 53
6z m-344 -52 c18 -23 19 -55 3 -106 -6 -18 -4 -21 8 -16 12 4 14 1 10 -15 -6
-22 -48 -61 -66 -61 -5 0 -44 -24 -86 -53 -42 -30 -89 -57 -105 -61 -15 -4
-26 -9 -24 -12 12 -11 104 29 163 71 54 38 76 48 122 52 l56 6 -5 -27 c-4 -22
-1 -29 18 -36 24 -10 54 -57 54 -86 0 -29 -39 -82 -69 -92 -22 -8 -34 -7 -50
4 -27 19 -27 32 2 36 14 2 23 11 25 27 6 40 -11 46 -75 23 -173 -60 -371 -78
-509 -46 -60 14 -208 68 -226 83 -4 3 31 5 78 3 l85 -3 -7 27 c-7 27 -7 27 37
20 217 -32 355 -2 454 100 78 80 59 179 -26 134 -28 -16 -24 5 7 37 22 22 32
25 67 20 26 -4 47 -14 59 -29z m-1363 -25 c101 -6 106 -7 137 -39 43 -42 126
-73 248 -90 100 -14 146 -33 146 -58 0 -8 -8 -16 -19 -19 -23 -6 -320 1 -375
8 -22 3 -159 6 -306 5 -217 0 -270 3 -285 14 -18 13 -18 16 -5 30 8 8 51 26
96 39 91 26 165 66 191 102 14 19 24 24 43 20 14 -3 72 -8 129 -12z m-524
-133 c3 -5 -3 -18 -15 -30 -50 -50 10 -113 88 -90 34 9 62 5 62 -11 0 -17 -80
-49 -125 -49 -37 0 -52 6 -80 33 -49 44 -57 96 -22 131 26 26 80 36 92 16z
m718 -86 c175 -3 315 -10 310 -15 -11 -11 -16 -11 -500 -3 -321 5 -415 9 -423
20 -9 10 17 12 142 9 84 -2 296 -7 471 -11z"/>
<path d="M2343 1469 c-23 -24 -93 -42 -127 -33 -25 6 -44 -10 -26 -21 5 -3 10
-13 10 -21 0 -12 -19 -14 -107 -12 -121 3 -145 -6 -183 -67 -27 -43 -26 -58 3
-49 30 9 34 14 17 24 -11 7 -8 11 15 19 17 6 38 16 47 21 10 6 27 10 38 10 11
0 20 5 20 10 0 6 15 10 33 9 17 -2 56 -2 85 -1 50 2 52 3 52 30 0 26 4 29 59
40 33 7 66 21 76 32 24 27 14 35 -12 9z"/>
</g>
</svg>
